<svg width="111" height="62" viewBox="0 0 111 62" fill="none" xmlns="http://www.w3.org/2000/svg">
<path d="M103.95 41.809C106.684 38.0441 104.733 32.4861 110.108 29.9024C110.226 31.1853 110.447 31.9802 110.346 32.732C109.234 41.0277 108.133 49.3259 106.863 57.5981C106.655 58.9532 105.958 60.8459 104.937 61.3305C103.058 62.2216 101.967 60.4954 101.079 58.9218C98.3205 54.0326 95.5004 49.1781 92.6854 44.2775C94.8368 43.6026 97.8679 45.7562 101.779 50.738C102.146 33.2938 87.8338 20.5743 71.073 23.7122C71.4758 25.3592 71.9272 26.9835 72.2658 28.6309C73.2628 33.4814 72.8308 38.1281 70.2804 42.493C68.4017 45.7083 65.7275 47.6624 61.9459 47.406C58.0538 47.1422 55.9627 44.4846 54.6347 41.0949C51.7578 33.752 54.1297 26.7216 60.8752 22.5011C61.7074 21.9803 62.4578 21.3287 63.5235 20.5298C57.3458 12.6838 49.7893 7.32374 40.1492 5.65069C25.2857 3.07117 4.57773 8.70951 2.63597 19.1045C2.39592 20.3896 2.39589 21.7195 2.21589 23.8368C0.212915 21.1656 0.351486 18.795 0.499997 16.5C4 6.5 13.6927 3.82802 22.5 1.5C28.1365 0.0101338 41.5168 0.382524 46.9249 2.49858C54.8804 5.61159 61.6513 10.356 66.7804 17.2864C67.2849 17.968 67.8329 18.6172 68.5335 19.4988C76.3549 18.5687 84.0853 18.6511 91.17 23.0913C98.0878 27.4268 100.65 34.7533 103.95 41.809ZM66.2349 24.8148C58.5031 27.3282 55.236 33.564 58.236 39.8687C58.9436 41.3555 60.616 42.9035 62.1555 43.3491C64.3481 43.9837 65.8433 42.2313 66.8121 40.2528C69.324 35.1232 68.7472 30.1377 66.2349 24.8148Z" fill="#646464"/>
</svg>
