<svg width="34" height="40" viewBox="0 0 34 40" fill="none" xmlns="http://www.w3.org/2000/svg">
<path fill-rule="evenodd" clip-rule="evenodd" d="M26.6844 6.89661C21.2202 1.43235 12.3609 1.43235 6.89661 6.89661C1.43235 12.3609 1.43235 21.2202 6.89661 26.6844C7.44303 27.2308 7.44303 28.1168 6.89661 28.6632C6.35018 29.2096 5.46425 29.2096 4.91783 28.6632C-1.63928 22.1061 -1.63928 11.4749 4.91783 4.91783C11.4749 -1.63928 22.1061 -1.63928 28.6632 4.91783C31.9414 8.19603 33.5809 12.4954 33.581 16.7902C33.581 17.563 32.9546 18.1894 32.1818 18.1894C31.4091 18.1895 30.7826 17.563 30.7826 16.7903C30.7825 13.2073 29.4167 9.62894 26.6844 6.89661ZM22.7269 10.8542C19.4483 7.57562 14.1327 7.57562 10.8542 10.8542C7.57562 14.1327 7.57562 19.4483 10.8542 22.7269C11.4006 23.2733 11.4006 24.1592 10.8542 24.7056C10.3077 25.2521 9.42181 25.2521 8.87539 24.7056C4.50399 20.3342 4.50399 13.2468 8.87539 8.87539C13.2468 4.50399 20.3342 4.50399 24.7056 8.87539C26.891 11.0608 27.9841 13.9279 27.9842 16.7904C27.9842 17.5631 27.3577 18.1896 26.585 18.1896C25.8122 18.1896 25.1858 17.5632 25.1858 16.7904C25.1857 14.6397 24.3664 12.4937 22.7269 10.8542ZM15.948 13.3052C16.5297 13.1493 17.1459 13.3831 17.4778 13.8857L27.2296 28.6556C27.5414 29.1278 27.5381 29.7414 27.2211 30.2102C26.9041 30.6791 26.3359 30.9108 25.7815 30.7973L21.8688 29.9967L23.8178 37.2706C24.0178 38.0171 23.5749 38.7843 22.8284 38.9843C22.082 39.1843 21.3148 38.7413 21.1147 37.9949L19.1657 30.7211L16.1781 33.3705C15.7546 33.746 15.1467 33.8294 14.6378 33.5819C14.1288 33.3344 13.8191 32.8047 13.853 32.2398L14.9134 14.5728C14.9495 13.9717 15.3662 13.461 15.948 13.3052Z" fill="#00AC4F"/>
</svg>
