<svg width="29" height="27" viewBox="0 0 29 27" fill="none" xmlns="http://www.w3.org/2000/svg">
<path fill-rule="evenodd" clip-rule="evenodd" d="M25.8895 0C25.4113 0 24.9438 0.141554 24.5458 0.406824L18.0754 4.72045C16.4453 5.80717 14.9611 7.0863 13.6523 8.52559C16.3449 9.78889 18.523 11.9668 19.7865 14.6592C21.2257 13.3505 22.5047 11.8663 23.5913 10.2364L27.905 3.76594C28.1702 3.36804 28.3118 2.90052 28.3118 2.4223C28.3118 1.0845 27.2273 0 25.8895 0ZM15.3168 17.8672C16.1543 17.4019 16.9608 16.8879 17.7325 16.3287C16.6981 13.7051 14.6066 11.6138 11.9828 10.5797C11.4237 11.3513 10.9098 12.1576 10.4446 12.995L10.0898 13.6337C12.302 14.2665 14.0453 16.0098 14.6781 18.222L15.3168 17.8672ZM8.24608 15.2881C5.6076 15.2881 3.46873 17.427 3.46873 20.0655C3.46873 21.1208 2.61317 21.9764 1.55778 21.9764C1.51452 21.9764 1.47145 21.975 1.42866 21.9721C1.07685 21.9489 0.740826 22.1212 0.554492 22.4206C0.368158 22.7199 0.361803 23.0975 0.537959 23.4029C1.69191 25.4036 3.85526 26.7538 6.33514 26.7538C10.029 26.7538 13.0234 23.7593 13.0234 20.0655C13.0234 17.427 10.8846 15.2881 8.24608 15.2881Z" fill="url(#paint0_linear_901_8688)"/>
<defs>
<linearGradient id="paint0_linear_901_8688" x1="14.361" y1="0" x2="14.361" y2="26.7538" gradientUnits="userSpaceOnUse">
<stop stop-color="#005BEA"/>
<stop offset="1" stop-color="#00C6FB"/>
</linearGradient>
</defs>
</svg>
