<svg width="55" height="55" viewBox="0 0 55 55" fill="none" xmlns="http://www.w3.org/2000/svg">
<rect width="55" height="55" rx="13.75" fill="url(#paint0_linear_1039_13049)"/>
<path fill-rule="evenodd" clip-rule="evenodd" d="M27.5729 16.3056C29.6396 16.3056 31.688 16.3834 33.7151 16.5363C36.4656 16.7438 38.6347 18.9129 38.8422 21.6634C38.9171 22.6574 38.9741 23.6565 39.0126 24.6604L36.1431 21.7909C35.6441 21.2919 34.8351 21.2919 34.3361 21.7909C33.8371 22.2899 33.8371 23.099 34.3361 23.598L39.4472 28.7091C39.9462 29.2081 40.7552 29.2081 41.2542 28.7091L46.3653 23.598C46.8643 23.099 46.8643 22.2899 46.3653 21.7909C45.8663 21.2919 45.0573 21.2919 44.5583 21.7909L41.5742 24.775C41.5345 23.6681 41.4731 22.5667 41.3905 21.4712C41.088 17.4609 37.9176 14.2905 33.9073 13.988C31.8163 13.8303 29.7039 13.75 27.5729 13.75C25.442 13.75 23.3296 13.8303 21.2385 13.988C17.2282 14.2905 14.0579 17.4609 13.7554 21.4712C13.7266 21.852 13.7005 22.2336 13.6769 22.6158C13.6335 23.3202 14.1693 23.9264 14.8736 23.9698C15.578 24.0132 16.1842 23.4774 16.2276 22.7731C16.2505 22.4025 16.2758 22.0326 16.3037 21.6634C16.5112 18.9129 18.6802 16.7438 21.4307 16.5363C23.4579 16.3834 25.5062 16.3056 27.5729 16.3056ZM15.6987 26.902C15.1997 26.403 14.3906 26.403 13.8916 26.902L8.7805 32.0131C8.2815 32.5121 8.2815 33.3212 8.7805 33.8202C9.27951 34.3192 10.0885 34.3192 10.5876 33.8202L13.5716 30.8361C13.6114 31.943 13.6727 33.0444 13.7554 34.1399C14.0579 38.1502 17.2282 41.3206 21.2385 41.6231C23.3296 41.7808 25.442 41.8611 27.5729 41.8611C29.7039 41.8611 31.8163 41.7808 33.9073 41.6231C37.9176 41.3206 41.088 38.1502 41.3905 34.1399C41.4192 33.7591 41.4454 33.3776 41.4689 32.9953C41.5124 32.291 40.9766 31.6847 40.2722 31.6413C39.5679 31.5979 38.9617 32.1337 38.9182 32.838C38.8954 33.2086 38.87 33.5785 38.8422 33.9477C38.6347 36.6982 36.4656 38.8673 33.7151 39.0748C31.688 39.2277 29.6396 39.3056 27.5729 39.3056C25.5062 39.3056 23.4579 39.2277 21.4307 39.0748C18.6802 38.8673 16.5112 36.6982 16.3037 33.9477C16.2287 32.9537 16.1718 31.9546 16.1332 30.9507L19.0027 33.8202C19.5017 34.3192 20.3108 34.3192 20.8098 33.8202C21.3088 33.3212 21.3088 32.5121 20.8098 32.0131L15.6987 26.902Z" fill="white"/>
<defs>
<linearGradient id="paint0_linear_1039_13049" x1="55" y1="0" x2="6.55651e-06" y2="55" gradientUnits="userSpaceOnUse">
<stop stop-color="#015CEA"/>
<stop offset="1" stop-color="#01BBF9"/>
</linearGradient>
</defs>
</svg>
