<svg width="51" height="53" viewBox="0 0 51 53" fill="none" xmlns="http://www.w3.org/2000/svg">
<path fill-rule="evenodd" clip-rule="evenodd" d="M26.8546 0.537443C26.098 -0.179148 24.9131 -0.179148 24.1564 0.537443C18.8807 5.53383 11.7619 8.59536 3.92393 8.59536C3.79922 8.59536 3.67471 8.59459 3.55039 8.59304C2.69402 8.58241 1.92971 9.12848 1.66221 9.94207C0.583024 13.2245 0 16.7297 0 20.3673C0 35.9113 10.6314 48.9673 25.0165 52.6697C25.3373 52.7523 25.6738 52.7523 25.9946 52.6697C40.3797 48.9673 51.011 35.9113 51.011 20.3673C51.011 16.7297 50.428 13.2245 49.3488 9.94207C49.0813 9.12848 48.317 8.58241 47.4607 8.59304C47.3363 8.59459 47.2118 8.59536 47.0871 8.59536C39.2491 8.59536 32.1304 5.53383 26.8546 0.537443ZM34.9499 21.5072C35.5797 20.6255 35.3755 19.4002 34.4937 18.7703C33.612 18.1405 32.3867 18.3448 31.7569 19.2265L23.2932 31.0756L19.045 26.8274C18.2788 26.0612 17.0365 26.0612 16.2704 26.8274C15.5042 27.5936 15.5042 28.8358 16.2704 29.602L22.1562 35.4879C22.564 35.8957 23.1306 36.1035 23.7054 36.0559C24.2801 36.0083 24.8049 35.7103 25.1401 35.241L34.9499 21.5072Z" fill="#00AC4F"/>
</svg>
