<svg width="16" height="21" viewBox="0 0 16 21" fill="none" xmlns="http://www.w3.org/2000/svg">
<path d="M8 0C8.41421 0 8.75 0.335787 8.75 0.75L8.75 6H7.25V0.75C7.25 0.335786 7.58579 0 8 0Z" fill="url(#paint0_linear_840_5101)"/>
<path d="M7.25 6L7.25 11.6893L5.53033 9.96967C5.23744 9.67678 4.76256 9.67678 4.46967 9.96967C4.17678 10.2626 4.17678 10.7374 4.46967 11.0303L7.46967 14.0303C7.61032 14.171 7.80109 14.25 8 14.25C8.19891 14.25 8.38968 14.171 8.53033 14.0303L11.5303 11.0303C11.8232 10.7374 11.8232 10.2626 11.5303 9.96967C11.2374 9.67678 10.7626 9.67678 10.4697 9.96967L8.75 11.6893V6H12.5C14.1569 6 15.5 7.34315 15.5 9V18C15.5 19.6569 14.1569 21 12.5 21H3.5C1.84315 21 0.5 19.6569 0.5 18V9C0.5 7.34315 1.84315 6 3.5 6H7.25Z" fill="url(#paint1_linear_840_5101)"/>
<defs>
<linearGradient id="paint0_linear_840_5101" x1="86.5" y1="2.5" x2="3.5" y2="21" gradientUnits="userSpaceOnUse">
<stop stop-color="#005BEA"/>
<stop offset="1" stop-color="#00C6FB"/>
</linearGradient>
<linearGradient id="paint1_linear_840_5101" x1="86.5" y1="2.5" x2="3.5" y2="21" gradientUnits="userSpaceOnUse">
<stop stop-color="#005BEA"/>
<stop offset="1" stop-color="#00C6FB"/>
</linearGradient>
</defs>
</svg>
