<svg width="21" height="26" viewBox="0 0 21 26" fill="none" xmlns="http://www.w3.org/2000/svg">
<path fill-rule="evenodd" clip-rule="evenodd" d="M10.7249 0C8.3923 0 6.09086 0.134958 3.82801 0.397569C2.00976 0.608583 0.707031 2.1702 0.707031 3.95491V24.5893C0.707031 24.8915 0.856934 25.174 1.10717 25.3434C1.35741 25.5128 1.67539 25.5471 1.95598 25.4349L6.17132 23.7487L10.3867 25.4349C10.6038 25.5217 10.846 25.5217 11.0631 25.4349L15.2785 23.7487L19.4938 25.4349C19.7744 25.5471 20.0924 25.5128 20.3426 25.3434C20.5928 25.174 20.7427 24.8915 20.7427 24.5893V3.95491C20.7427 2.1702 19.44 0.608583 17.6218 0.397569C15.3589 0.134959 13.0575 0 10.7249 0ZM15.0117 8.8404C15.3674 8.48475 15.3674 7.90811 15.0117 7.55246C14.6561 7.1968 14.0794 7.1968 13.7238 7.55246L6.43806 14.8382C6.0824 15.1938 6.0824 15.7705 6.43806 16.1261C6.79371 16.4818 7.37035 16.4818 7.726 16.1261L15.0117 8.8404ZM6.62667 9.10714C6.62667 8.35268 7.23828 7.74107 7.99274 7.74107C8.74721 7.74107 9.35882 8.35268 9.35882 9.10714C9.35882 9.8616 8.74721 10.4732 7.99274 10.4732C7.23828 10.4732 6.62667 9.8616 6.62667 9.10714ZM13.457 13.2054C12.7026 13.2054 12.091 13.817 12.091 14.5714C12.091 15.3259 12.7026 15.9375 13.457 15.9375C14.2115 15.9375 14.8231 15.3259 14.8231 14.5714C14.8231 13.817 14.2115 13.2054 13.457 13.2054Z" fill="url(#paint0_linear_901_8685)"/>
<defs>
<linearGradient id="paint0_linear_901_8685" x1="20.489" y1="-1.15646e-06" x2="-1.2131" y2="26.0426" gradientUnits="userSpaceOnUse">
<stop stop-color="#005BEA"/>
<stop offset="1" stop-color="#00C6FB"/>
</linearGradient>
</defs>
</svg>
