<svg width="38" height="38" viewBox="0 0 38 38" fill="none" xmlns="http://www.w3.org/2000/svg">
<path fill-rule="evenodd" clip-rule="evenodd" d="M14.1414 11.0085C19.3539 4.31202 27.4949 0.000387963 36.6428 1.2121e-09C37.0028 -1.52028e-05 37.348 0.142962 37.6025 0.397477C37.857 0.651993 38 0.997196 38 1.35714C38 10.5054 33.6884 18.6471 26.9917 23.8601C27.0912 24.488 27.1428 25.1312 27.1428 25.7857C27.1428 32.5315 21.6743 38 14.9286 38C14.179 38 13.5714 37.3924 13.5714 36.6428V29.1667C13.5547 29.1547 13.5382 29.1422 13.5219 29.1293C11.7992 27.7633 10.2383 26.2024 8.87231 24.4797C8.85901 24.4629 8.84614 24.4459 8.83371 24.4286H1.35714C0.607613 24.4286 0 23.8209 0 23.0714C0 16.3257 5.46852 10.8571 12.2143 10.8571C12.8693 10.8571 13.513 10.9088 14.1414 11.0085ZM24.4286 9.5C22.18 9.5 20.3571 11.3228 20.3571 13.5714C20.3571 15.82 22.18 17.6429 24.4286 17.6429C26.6771 17.6429 28.5 15.82 28.5 13.5714C28.5 11.3228 26.6771 9.5 24.4286 9.5Z" fill="url(#paint0_linear_2040_35766)"/>
<path d="M6.80447 28.4852C7.40524 28.037 7.52895 27.1867 7.08078 26.5859C6.63261 25.9851 5.78226 25.8614 5.18148 26.3096C2.86283 28.0393 1.35714 30.8082 1.35714 33.9284C1.35714 34.427 1.39567 34.9176 1.47016 35.397C1.56087 35.9809 2.01897 36.439 2.60286 36.5297C3.08228 36.6042 3.57281 36.6427 4.07143 36.6427C7.19166 36.6427 9.96055 35.137 11.6902 32.8184C12.1384 32.2176 12.0147 31.3672 11.4139 30.9191C10.8132 30.4709 9.96281 30.5946 9.51464 31.1954C8.27519 32.8568 6.29861 33.9284 4.07143 33.9284C4.07143 31.7012 5.14299 29.7246 6.80447 28.4852Z" fill="url(#paint1_linear_2040_35766)"/>
<defs>
<linearGradient id="paint0_linear_2040_35766" x1="33.5" y1="-4.01554e-07" x2="7" y2="38" gradientUnits="userSpaceOnUse">
<stop stop-color="#005BEA"/>
<stop offset="1" stop-color="#00C6FB"/>
</linearGradient>
<linearGradient id="paint1_linear_2040_35766" x1="33.5" y1="-4.01554e-07" x2="7" y2="38" gradientUnits="userSpaceOnUse">
<stop stop-color="#005BEA"/>
<stop offset="1" stop-color="#00C6FB"/>
</linearGradient>
</defs>
</svg>
