<svg width="26" height="26" viewBox="0 0 26 26" fill="none" xmlns="http://www.w3.org/2000/svg">
<path fill-rule="evenodd" clip-rule="evenodd" d="M3.92159 0C1.75576 0 0 1.75576 0 3.92159V9.56609C0 10.6062 0.413165 11.6036 1.14861 12.3391L13.673 24.8635C14.8747 26.0652 16.7961 26.4137 18.3103 25.4223C21.1429 23.5679 23.5679 21.1429 25.4223 18.3103C26.4137 16.7961 26.0652 14.8747 24.8635 13.673L12.3391 1.14861C11.6036 0.413165 10.6062 0 9.56609 0H3.92159ZM5.39219 6.86278C6.20437 6.86278 6.86278 6.20437 6.86278 5.39219C6.86278 4.58 6.20437 3.92159 5.39219 3.92159C4.58 3.92159 3.92159 4.58 3.92159 5.39219C3.92159 6.20437 4.58 6.86278 5.39219 6.86278Z" fill="url(#paint0_linear_901_8701)"/>
<defs>
<linearGradient id="paint0_linear_901_8701" x1="26" y1="-0.237805" x2="0" y2="25.7622" gradientUnits="userSpaceOnUse">
<stop stop-color="#005BEA"/>
<stop offset="1" stop-color="#00C6FB"/>
</linearGradient>
</defs>
</svg>
