<svg width="223" height="274" viewBox="0 0 223 274" fill="none" xmlns="http://www.w3.org/2000/svg">
<g filter="url(#filter0_i_1498_28954)">
<path fill-rule="evenodd" clip-rule="evenodd" d="M150.963 164.508L177.706 180.794L170.052 192.784L132.635 169.104L150.963 164.508Z" fill="#005BEA"/>
<path d="M117.212 157.101L123.247 147.648C123.694 146.947 124.615 146.738 125.305 147.18L150.963 164.508L132.635 169.104L117.651 159.17C116.961 158.728 116.765 157.801 117.212 157.101Z" fill="#222325"/>
<path d="M117.212 157.101L123.247 147.648C123.694 146.947 124.615 146.738 125.305 147.18L150.963 164.508L132.635 169.104L117.651 159.17C116.961 158.728 116.765 157.801 117.212 157.101Z" fill="black" fill-opacity="0.2"/>
<path d="M212.07 189.534L202.709 204.198C201.036 206.818 198.119 208.15 195.258 207.898L211.572 182.341C213.268 184.288 213.547 187.219 212.07 189.534Z" fill="black"/>
<path d="M192.224 188.319L194.74 184.377C198.02 179.24 204.776 177.704 209.832 180.947L210.316 181.257C210.795 181.565 211.215 181.931 211.572 182.341L195.258 207.898C194.039 207.791 192.831 207.396 191.733 206.692L189.783 205.441L183.76 201.578L170.052 192.784L177.706 180.794L190.166 188.787C190.855 189.229 191.776 189.02 192.224 188.319Z" fill="white"/>
</g>
<path d="M152.032 162.835L126.411 145.533C126.399 145.524 126.385 145.516 126.372 145.507C124.738 144.458 122.598 144.975 121.576 146.576L115.542 156.029C114.523 157.625 114.946 159.78 116.568 160.833L131.54 170.759L131.542 170.76C131.545 170.762 131.548 170.764 131.551 170.766L152.032 162.835ZM152.032 162.835L178.728 179.093M152.032 162.835L178.728 179.093M168.985 194.457L131.58 170.785L168.985 194.457ZM168.985 194.457L168.99 194.46L182.692 203.25L188.715 207.114L190.666 208.365C192.04 209.247 193.557 209.742 195.086 209.877C198.664 210.192 202.3 208.528 204.379 205.269L213.74 190.606C215.696 187.542 215.337 183.643 213.066 181.036C213.065 181.036 213.065 181.036 213.065 181.035C212.585 180.485 212.023 179.995 211.383 179.585L210.9 179.275C204.899 175.425 196.924 177.267 193.07 183.305L190.811 186.843L178.775 179.122C178.775 179.122 178.774 179.122 178.774 179.122L168.985 194.457ZM178.728 179.093C178.742 179.102 178.756 179.11 178.77 179.119L178.728 179.093Z" stroke="#222325" stroke-width="3.96888" stroke-linejoin="round"/>
<path d="M152.032 162.835L126.411 145.533C126.399 145.524 126.385 145.516 126.372 145.507C124.738 144.458 122.598 144.975 121.576 146.576L115.542 156.029C114.523 157.625 114.946 159.78 116.568 160.833L131.54 170.759L131.542 170.76C131.545 170.762 131.548 170.764 131.551 170.766L152.032 162.835ZM152.032 162.835L178.728 179.093M152.032 162.835L178.728 179.093M168.985 194.457L131.58 170.785L168.985 194.457ZM168.985 194.457L168.99 194.46L182.692 203.25L188.715 207.114L190.666 208.365C192.04 209.247 193.557 209.742 195.086 209.877C198.664 210.192 202.3 208.528 204.379 205.269L213.74 190.606C215.696 187.542 215.337 183.643 213.066 181.036C213.065 181.036 213.065 181.036 213.065 181.035C212.585 180.485 212.023 179.995 211.383 179.585L210.9 179.275C204.899 175.425 196.924 177.267 193.07 183.305L190.811 186.843L178.775 179.122C178.775 179.122 178.774 179.122 178.774 179.122L168.985 194.457ZM178.728 179.093C178.742 179.102 178.756 179.11 178.77 179.119L178.728 179.093Z" stroke="black" stroke-opacity="0.2" stroke-width="3.96888" stroke-linejoin="round"/>
<line x1="171.708" y1="192.739" x2="178.615" y2="182.513" stroke="#222325" stroke-width="3.96888" stroke-linecap="round"/>
<line x1="171.708" y1="192.739" x2="178.615" y2="182.513" stroke="black" stroke-opacity="0.2" stroke-width="3.96888" stroke-linecap="round"/>
<line x1="194.935" y1="208.459" x2="210.919" y2="182.622" stroke="#222325" stroke-width="3.96888" stroke-linecap="round"/>
<line x1="194.935" y1="208.459" x2="210.919" y2="182.622" stroke="black" stroke-opacity="0.2" stroke-width="3.96888" stroke-linecap="round"/>
<path d="M126.955 78.4318L126.87 78.3077L126.767 78.1978C123.254 74.4384 119.542 70.6804 114.846 68.3411C110.055 65.9544 104.393 65.111 97.0887 66.8167C90.048 68.4607 84.2344 71.7013 79.5938 74.2881C79.4829 74.3499 79.3727 74.4113 79.2631 74.4724C76.8729 75.804 74.8764 76.9012 73.1189 77.592C71.3497 78.2873 70.1219 78.4447 69.2037 78.2226C68.3031 78.0047 67.6861 77.4989 67.1424 76.6435C66.5481 75.7085 66.1184 74.4786 65.619 72.9232C65.5805 72.8032 65.5415 72.6812 65.502 72.5575C65.0604 71.1746 64.5496 69.575 63.8029 68.1393C62.9664 66.5311 61.7622 64.9757 59.8527 63.9689C58.5922 63.3042 57.1191 63.2762 55.7511 63.494C54.3498 63.7171 52.8126 64.2369 51.227 64.9514C48.0494 66.3833 44.4066 68.7209 40.807 71.5952C33.6433 77.3153 26.2729 85.4667 22.9894 93.5212C19.9787 100.907 18.0507 109.466 18.9966 118.95C19.9437 128.445 23.7586 138.733 32.0316 149.585C34.1452 152.357 41.0084 160.02 43.2694 162.493C47.2319 166.826 53.8924 173.676 61.4466 179.516C68.9113 185.287 77.6223 190.371 85.6334 190.624C90.0185 190.763 93.9579 189.263 97.5421 187.133C100.97 185.096 104.21 182.396 107.281 179.837C107.397 179.741 107.513 179.644 107.628 179.548C107.629 179.547 107.63 179.547 107.631 179.546L137.856 154.535L137.861 154.531C141.124 151.813 145.124 148.122 147.655 142.737C150.214 137.294 151.184 130.319 148.764 121.19C146.38 112.195 140.882 101.467 136.067 93.0919C133.646 88.8809 131.371 85.2212 129.702 82.6137C128.866 81.3095 128.182 80.2674 127.705 79.5498C127.467 79.1909 127.28 78.9132 127.153 78.7243C127.089 78.6298 127.04 78.5576 127.007 78.5085L126.969 78.4524L126.959 78.4377L126.956 78.4336L126.955 78.4325C126.955 78.4321 126.955 78.4318 125.318 79.554L126.955 78.4318Z" fill="#EEEFFC"/>
<path d="M126.955 78.4318L126.87 78.3077L126.767 78.1978C123.254 74.4384 119.542 70.6804 114.846 68.3411C110.055 65.9544 104.393 65.111 97.0887 66.8167C90.048 68.4607 84.2344 71.7013 79.5938 74.2881C79.4829 74.3499 79.3727 74.4113 79.2631 74.4724C76.8729 75.804 74.8764 76.9012 73.1189 77.592C71.3497 78.2873 70.1219 78.4447 69.2037 78.2226C68.3031 78.0047 67.6861 77.4989 67.1424 76.6435C66.5481 75.7085 66.1184 74.4786 65.619 72.9232C65.5805 72.8032 65.5415 72.6812 65.502 72.5575C65.0604 71.1746 64.5496 69.575 63.8029 68.1393C62.9664 66.5311 61.7622 64.9757 59.8527 63.9689C58.5922 63.3042 57.1191 63.2762 55.7511 63.494C54.3498 63.7171 52.8126 64.2369 51.227 64.9514C48.0494 66.3833 44.4066 68.7209 40.807 71.5952C33.6433 77.3153 26.2729 85.4667 22.9894 93.5212C19.9787 100.907 18.0507 109.466 18.9966 118.95C19.9437 128.445 23.7586 138.733 32.0316 149.585C34.1452 152.357 41.0084 160.02 43.2694 162.493C47.2319 166.826 53.8924 173.676 61.4466 179.516C68.9113 185.287 77.6223 190.371 85.6334 190.624C90.0185 190.763 93.9579 189.263 97.5421 187.133C100.97 185.096 104.21 182.396 107.281 179.837C107.397 179.741 107.513 179.644 107.628 179.548C107.629 179.547 107.63 179.547 107.631 179.546L137.856 154.535L137.861 154.531C141.124 151.813 145.124 148.122 147.655 142.737C150.214 137.294 151.184 130.319 148.764 121.19C146.38 112.195 140.882 101.467 136.067 93.0919C133.646 88.8809 131.371 85.2212 129.702 82.6137C128.866 81.3095 128.182 80.2674 127.705 79.5498C127.467 79.1909 127.28 78.9132 127.153 78.7243C127.089 78.6298 127.04 78.5576 127.007 78.5085L126.969 78.4524L126.959 78.4377L126.956 78.4336L126.955 78.4325C126.955 78.4321 126.955 78.4318 125.318 79.554L126.955 78.4318Z" stroke="#222325" stroke-width="3.96888"/>
<path d="M126.955 78.4318L126.87 78.3077L126.767 78.1978C123.254 74.4384 119.542 70.6804 114.846 68.3411C110.055 65.9544 104.393 65.111 97.0887 66.8167C90.048 68.4607 84.2344 71.7013 79.5938 74.2881C79.4829 74.3499 79.3727 74.4113 79.2631 74.4724C76.8729 75.804 74.8764 76.9012 73.1189 77.592C71.3497 78.2873 70.1219 78.4447 69.2037 78.2226C68.3031 78.0047 67.6861 77.4989 67.1424 76.6435C66.5481 75.7085 66.1184 74.4786 65.619 72.9232C65.5805 72.8032 65.5415 72.6812 65.502 72.5575C65.0604 71.1746 64.5496 69.575 63.8029 68.1393C62.9664 66.5311 61.7622 64.9757 59.8527 63.9689C58.5922 63.3042 57.1191 63.2762 55.7511 63.494C54.3498 63.7171 52.8126 64.2369 51.227 64.9514C48.0494 66.3833 44.4066 68.7209 40.807 71.5952C33.6433 77.3153 26.2729 85.4667 22.9894 93.5212C19.9787 100.907 18.0507 109.466 18.9966 118.95C19.9437 128.445 23.7586 138.733 32.0316 149.585C34.1452 152.357 41.0084 160.02 43.2694 162.493C47.2319 166.826 53.8924 173.676 61.4466 179.516C68.9113 185.287 77.6223 190.371 85.6334 190.624C90.0185 190.763 93.9579 189.263 97.5421 187.133C100.97 185.096 104.21 182.396 107.281 179.837C107.397 179.741 107.513 179.644 107.628 179.548C107.629 179.547 107.63 179.547 107.631 179.546L137.856 154.535L137.861 154.531C141.124 151.813 145.124 148.122 147.655 142.737C150.214 137.294 151.184 130.319 148.764 121.19C146.38 112.195 140.882 101.467 136.067 93.0919C133.646 88.8809 131.371 85.2212 129.702 82.6137C128.866 81.3095 128.182 80.2674 127.705 79.5498C127.467 79.1909 127.28 78.9132 127.153 78.7243C127.089 78.6298 127.04 78.5576 127.007 78.5085L126.969 78.4524L126.959 78.4377L126.956 78.4336L126.955 78.4325C126.955 78.4321 126.955 78.4318 125.318 79.554L126.955 78.4318Z" stroke="black" stroke-opacity="0.2" stroke-width="3.96888"/>
<mask id="mask0_1498_28954" style="mask-type:alpha" maskUnits="userSpaceOnUse" x="20" y="65" width="129" height="124">
<path d="M125.318 79.554C118.277 72.0196 111.336 65.5283 97.5391 68.75C83.742 71.9717 74.7732 81.6127 68.7373 80.1522C62.7014 78.6918 64.6914 68.7644 58.9279 65.7253C53.1644 62.6862 31.0349 79.0403 24.826 94.2709C18.9867 108.595 17.4563 127.194 33.6087 148.38C35.6572 151.067 42.4529 158.659 44.7328 161.152C52.591 169.746 71.0241 188.176 85.6964 188.64C93.4475 188.885 99.9452 183.365 106.362 178.02L136.592 153.005C143.009 147.66 151.473 139.152 146.847 121.7C142.221 104.248 125.318 79.554 125.318 79.554Z" fill="#EEEFFC"/>
</mask>
<g mask="url(#mask0_1498_28954)">
<path d="M126.094 80.782C119.39 73.6003 112.186 69.6703 99.1274 72.6681C86.0684 75.6659 75.623 85.6353 67.116 83.5368C58.609 81.4382 62.0868 73.5599 56.6126 70.6504C51.1383 67.7409 29.5395 84.2296 23.7227 98.6582C18.2519 112.228 20.3072 130.727 35.7038 150.906C37.6564 153.465 44.1285 160.7 46.2995 163.076C53.7826 171.267 71.3281 188.839 85.2323 189.343C92.5777 189.61 98.7104 184.398 104.767 179.353L133.302 155.743C139.359 150.698 151.134 137.461 146.675 120.877C142.217 104.293 126.094 80.782 126.094 80.782Z" fill="#C9CEF4"/>
<path d="M139.367 114.606C142.025 123.643 143.713 131.967 140.431 140.915C137.15 149.864 125.62 158.331 118.446 164.085C91.1346 185.987 80.2268 184.393 64.5652 173.056C48.9037 161.718 31.1368 125.175 25.8975 119.083C25.8975 119.083 20.1664 109.845 36.6454 106.048C53.1244 102.252 58.3157 100.806 75.0358 95.8294C91.756 90.8528 102.935 85.9878 116.925 86.9586C130.914 87.9294 136.71 105.569 139.367 114.606Z" fill="#013B97"/>
<g filter="url(#filter1_i_1498_28954)">
<path d="M140.475 112.907C144.635 121.14 145.812 132.186 142.922 138.359C140.032 144.533 125.483 158.801 117.691 164.999C94.8069 183.201 87.6416 191.891 64.2276 173.93C40.8136 155.969 19.0564 124.583 26.0893 112.327C26.0893 112.327 31.9469 118.501 55.5693 114.545C79.1917 110.589 103.508 94.1437 110.469 89.895C117.43 85.6463 125.307 87.4652 129.746 93.305C134.186 99.1448 136.314 104.675 140.475 112.907Z" fill="#005BEA"/>
</g>
<path d="M94.7618 139.224C100.167 134.851 102.758 132.998 109.051 131.885" stroke="#222325" stroke-width="3.96888" stroke-linecap="round"/>
<path d="M94.7618 139.224C100.167 134.851 102.758 132.998 109.051 131.885" stroke="black" stroke-opacity="0.2" stroke-width="3.96888" stroke-linecap="round"/>
<ellipse cx="4.34698" cy="5.16461" rx="4.34698" ry="5.16461" transform="matrix(0.885336 -0.464952 0.464218 0.885721 74.8984 124.498)" fill="#222325"/>
<ellipse cx="4.34698" cy="5.16461" rx="4.34698" ry="5.16461" transform="matrix(0.885336 -0.464952 0.464218 0.885721 74.8984 124.498)" fill="black" fill-opacity="0.2"/>
<ellipse cx="4.25474" cy="4.82463" rx="4.25474" ry="4.82463" transform="matrix(0.866438 -0.499285 0.498567 0.866851 94.5 109.375)" fill="#222325"/>
<ellipse cx="4.25474" cy="4.82463" rx="4.25474" ry="4.82463" transform="matrix(0.866438 -0.499285 0.498567 0.866851 94.5 109.375)" fill="black" fill-opacity="0.2"/>
<path d="M58.6883 70.4217C58.2395 73.574 58.6743 81.2998 64.0043 86.985" stroke="#222325" stroke-width="3.96888" stroke-linecap="round" stroke-linejoin="round"/>
<path d="M58.6883 70.4217C58.2395 73.574 58.6743 81.2998 64.0043 86.985" stroke="black" stroke-opacity="0.2" stroke-width="3.96888" stroke-linecap="round" stroke-linejoin="round"/>
</g>
<g filter="url(#filter2_i_1498_28954)">
<path fill-rule="evenodd" clip-rule="evenodd" d="M102.443 196.663V226.04H116.583V178.17L102.443 196.663Z" fill="#005BEA"/>
<path d="M115.087 171.158H103.939C103.113 171.158 102.443 171.815 102.443 172.626V196.663L116.583 178.17V172.626C116.583 171.815 115.913 171.158 115.087 171.158Z" fill="#222325"/>
<path d="M115.087 171.158H103.939C103.113 171.158 102.443 171.815 102.443 172.626V196.663L116.583 178.17V172.626C116.583 171.815 115.913 171.158 115.087 171.158Z" fill="black" fill-opacity="0.2"/>
<path d="M91.3116 269.884H108.605C111.896 269.884 114.721 267.928 115.941 265.135H85.438C85.9731 267.841 88.3994 269.884 91.3116 269.884Z" fill="black"/>
<path d="M100.947 252.67H96.2978C90.2394 252.67 85.3281 257.492 85.3281 263.44V264.009C85.3281 264.394 85.3659 264.771 85.438 265.135H115.941C116.354 264.189 116.583 263.146 116.583 262.051V259.756V252.67V226.04H102.443V251.202C102.443 252.013 101.773 252.67 100.947 252.67Z" fill="white"/>
</g>
<path d="M100.459 172.626V196.663V226.04V250.686H96.2978C89.178 250.686 83.3437 256.362 83.3437 263.44V264.009C83.3437 264.524 83.3942 265.03 83.4913 265.52C84.2116 269.162 87.4589 271.868 91.3116 271.868H108.605C112.696 271.868 116.228 269.434 117.759 265.93C118.28 264.738 118.567 263.425 118.567 262.051V259.756V252.67V226.04V178.17V172.626C118.567 170.685 116.975 169.173 115.087 169.173H103.939C102.051 169.173 100.459 170.685 100.459 172.626Z" stroke="#222325" stroke-width="3.96888" stroke-linejoin="round"/>
<path d="M100.459 172.626V196.663V226.04V250.686H96.2978C89.178 250.686 83.3437 256.362 83.3437 263.44V264.009C83.3437 264.524 83.3942 265.03 83.4913 265.52C84.2116 269.162 87.4589 271.868 91.3116 271.868H108.605C112.696 271.868 116.228 269.434 117.759 265.93C118.28 264.738 118.567 263.425 118.567 262.051V259.756V252.67V226.04V178.17V172.626C118.567 170.685 116.975 169.173 115.087 169.173H103.939C102.051 169.173 100.459 170.685 100.459 172.626Z" stroke="black" stroke-opacity="0.2" stroke-width="3.96888" stroke-linejoin="round"/>
<path d="M110.103 154.303C109.527 140.586 111.139 110.741 124.4 109.358C137.66 107.974 181.851 103.468 206.254 101.739C208.325 107.849 211.848 126.914 209.361 154.303L138.809 155.04C131.164 165.799 112.661 186.947 99.8054 185.47C86.95 183.993 101.314 164.076 110.103 154.303Z" fill="#00C6FB"/>
<path d="M83.8307 3.17229C90.0291 1.8026 102.025 0.643633 100.423 6.96527C98.8213 13.2869 88.694 7.07064 83.8307 3.17229Z" fill="#22285D"/>
<path d="M83.8307 3.17229C79.5394 8.96712 72.6162 20.8729 79.2533 22.1372C85.8905 23.4016 85.0703 10.0207 83.8307 3.17229Z" fill="#22285D"/>
<path d="M126.859 127.635C111.792 126.581 98.493 77.5209 114.565 29.0226C118.546 17.0114 130.772 19.6836 130.772 29.0226C130.772 38.3615 100.105 64.8083 98.102 22.1372M83.8307 3.17229C79.5394 8.96712 72.6162 20.8729 79.2533 22.1372C85.8905 23.4016 85.0703 10.0207 83.8307 3.17229ZM83.8307 3.17229C90.0291 1.8026 102.025 0.643633 100.423 6.96527C98.8213 13.2869 88.694 7.07064 83.8307 3.17229Z" stroke="#222325" stroke-width="3.96888" stroke-linecap="round" stroke-linejoin="round"/>
<path d="M126.859 127.635C111.792 126.581 98.493 77.5209 114.565 29.0226C118.546 17.0114 130.772 19.6836 130.772 29.0226C130.772 38.3615 100.105 64.8083 98.102 22.1372M83.8307 3.17229C79.5394 8.96712 72.6162 20.8729 79.2533 22.1372C85.8905 23.4016 85.0703 10.0207 83.8307 3.17229ZM83.8307 3.17229C90.0291 1.8026 102.025 0.643633 100.423 6.96527C98.8213 13.2869 88.694 7.07064 83.8307 3.17229Z" stroke="black" stroke-opacity="0.2" stroke-width="3.96888" stroke-linecap="round" stroke-linejoin="round"/>
<path d="M113.285 152.018H132.93" stroke="#222325" stroke-width="3.96888" stroke-linecap="round" stroke-linejoin="round"/>
<path d="M113.285 152.018H132.93" stroke="black" stroke-opacity="0.2" stroke-width="3.96888" stroke-linecap="round" stroke-linejoin="round"/>
<path d="M123.105 113.087C128.051 109.937 137.876 113.492 137.606 152.914" stroke="#222325" stroke-width="3.96888" stroke-linecap="round" stroke-linejoin="round"/>
<path d="M123.105 113.087C128.051 109.937 137.876 113.492 137.606 152.914" stroke="black" stroke-opacity="0.2" stroke-width="3.96888" stroke-linecap="round" stroke-linejoin="round"/>
<ellipse cx="154.131" cy="123.201" rx="6.13886" ry="6.14402" fill="#222325"/>
<ellipse cx="154.131" cy="123.201" rx="6.13886" ry="6.14402" fill="black" fill-opacity="0.2"/>
<path d="M166.701 92.2764C158.836 92.2764 138.91 94.6582 138.91 94.6582L144.416 106.038L183.518 102.198C183.518 117.117 196.071 115.879 198.778 110.033C201.484 104.187 202.084 97.6421 197.9 94.6582C194.56 92.2763 185.732 92.2763 167.015 92.2764H166.701Z" fill="#005BEA"/>
<path d="M179.81 97.3047C179.787 97.7529 177.975 101.274 183.518 102.198M183.518 102.198L144.416 106.038L138.91 94.6582C138.91 94.6582 158.836 92.2764 166.701 92.2764C185.634 92.2764 194.541 92.263 197.9 94.6582C202.084 97.6421 201.484 104.187 198.778 110.033C196.071 115.879 183.518 117.117 183.518 102.198Z" stroke="#222325" stroke-width="3.96888" stroke-linecap="round" stroke-linejoin="round"/>
<path d="M179.81 97.3047C179.787 97.7529 177.975 101.274 183.518 102.198M183.518 102.198L144.416 106.038L138.91 94.6582C138.91 94.6582 158.836 92.2764 166.701 92.2764C185.634 92.2764 194.541 92.263 197.9 94.6582C202.084 97.6421 201.484 104.187 198.778 110.033C196.071 115.879 183.518 117.117 183.518 102.198Z" stroke="black" stroke-opacity="0.2" stroke-width="3.96888" stroke-linecap="round" stroke-linejoin="round"/>
<g filter="url(#filter3_i_1498_28954)">
<path d="M74.909 212.583C58.6963 211.6 44.4643 185.571 47.9446 159.015C48.173 157.272 49.23 155.68 50.9373 155.266C58.0604 153.537 69.0023 158.347 67.4674 174.137C67.4674 174.137 70.5045 184.714 78.6873 192.303C82.4987 187.221 87.5806 174.137 87.5806 174.137C89.6134 163.845 106.384 163.045 104.351 178.074C102.318 193.103 91.6793 213.599 74.909 212.583Z" fill="#005BEA"/>
</g>
<path d="M73.5537 197.165C76.6303 195.183 78.6873 192.303 78.6873 192.303M78.6873 192.303C82.4987 187.221 87.5806 174.137 87.5806 174.137C89.6134 163.845 106.384 163.045 104.351 178.074C102.318 193.103 91.6793 213.599 74.909 212.583C58.6963 211.6 44.4643 185.571 47.9446 159.015C48.173 157.272 49.23 155.68 50.9373 155.266C58.0604 153.537 69.0023 158.347 67.4674 174.137C67.4674 174.137 70.5045 184.714 78.6873 192.303Z" stroke="#222325" stroke-width="3.96888" stroke-linecap="round" stroke-linejoin="round"/>
<path d="M73.5537 197.165C76.6303 195.183 78.6873 192.303 78.6873 192.303M78.6873 192.303C82.4987 187.221 87.5806 174.137 87.5806 174.137C89.6134 163.845 106.384 163.045 104.351 178.074C102.318 193.103 91.6793 213.599 74.909 212.583C58.6963 211.6 44.4643 185.571 47.9446 159.015C48.173 157.272 49.23 155.68 50.9373 155.266C58.0604 153.537 69.0023 158.347 67.4674 174.137C67.4674 174.137 70.5045 184.714 78.6873 192.303Z" stroke="black" stroke-opacity="0.2" stroke-width="3.96888" stroke-linecap="round" stroke-linejoin="round"/>
<path d="M179.646 102.99L142.383 107.386L143.173 113.381L185.048 114.601C183.15 111.092 182.612 107.729 182.366 105.208C182.232 103.828 181.023 102.828 179.646 102.99Z" fill="#00C6FB"/>
<path d="M157.269 155.923H143.375L145.747 271.868H157.269V155.923Z" fill="#222325"/>
<path d="M157.269 155.923H143.375L145.747 271.868H157.269V155.923Z" fill="black" fill-opacity="0.2"/>
<path d="M170.165 65.9824H150.849L151.395 76.7779H170.165V65.9824Z" fill="#222325"/>
<path d="M170.165 65.9824H150.849L151.395 76.7779H170.165V65.9824Z" fill="black" fill-opacity="0.2"/>
<path d="M153.767 121.502L151.395 76.7779M151.395 76.7779L150.849 65.9824H170.165V76.7779H151.395ZM143.375 155.923H157.269V271.868H145.747L143.375 155.923Z" stroke="#222325" stroke-width="3.96888" stroke-linecap="round" stroke-linejoin="round"/>
<path d="M153.767 121.502L151.395 76.7779M151.395 76.7779L150.849 65.9824H170.165V76.7779H151.395ZM143.375 155.923H157.269V271.868H145.747L143.375 155.923Z" stroke="black" stroke-opacity="0.2" stroke-width="3.96888" stroke-linecap="round" stroke-linejoin="round"/>
<line x1="73.918" y1="271.868" x2="205.387" y2="271.868" stroke="#222325" stroke-width="3.96888" stroke-linecap="round"/>
<line x1="73.918" y1="271.868" x2="205.387" y2="271.868" stroke="black" stroke-opacity="0.2" stroke-width="3.96888" stroke-linecap="round"/>
<path d="M105.239 252.244C109.406 253.058 112.171 255.148 112.171 255.148" stroke="#222325" stroke-width="3.96888" stroke-linecap="round"/>
<path d="M105.239 252.244C109.406 253.058 112.171 255.148 112.171 255.148" stroke="black" stroke-opacity="0.2" stroke-width="3.96888" stroke-linecap="round"/>
<line x1="103.438" y1="225.196" x2="115.778" y2="225.196" stroke="#222325" stroke-width="3.96888" stroke-linecap="round"/>
<line x1="103.438" y1="225.196" x2="115.778" y2="225.196" stroke="black" stroke-opacity="0.2" stroke-width="3.96888" stroke-linecap="round"/>
<line x1="85.0274" y1="264.666" x2="117.025" y2="264.666" stroke="#222325" stroke-width="3.96888" stroke-linecap="round"/>
<line x1="85.0274" y1="264.666" x2="117.025" y2="264.666" stroke="black" stroke-opacity="0.2" stroke-width="3.96888" stroke-linecap="round"/>
<defs>
<filter id="filter0_i_1498_28954" x="111.519" y="141.485" width="105.473" height="70.4166" filterUnits="userSpaceOnUse" color-interpolation-filters="sRGB">
<feFlood flood-opacity="0" result="BackgroundImageFix"/>
<feBlend mode="normal" in="SourceGraphic" in2="BackgroundImageFix" result="shape"/>
<feColorMatrix in="SourceAlpha" type="matrix" values="0 0 0 0 0 0 0 0 0 0 0 0 0 0 0 0 0 0 127 0" result="hardAlpha"/>
<feOffset dx="-2.48055" dy="-8.43386"/>
<feGaussianBlur stdDeviation="0.744165"/>
<feComposite in2="hardAlpha" operator="arithmetic" k2="-1" k3="1"/>
<feColorMatrix type="matrix" values="0 0 0 0 0.141667 0 0 0 0 0.170204 0 0 0 0 0.425 0 0 0 0.34 0"/>
<feBlend mode="darken" in2="shape" result="effect1_innerShadow_1498_28954"/>
</filter>
<filter id="filter1_i_1498_28954" x="24.7461" y="86.5747" width="120.266" height="97.2276" filterUnits="userSpaceOnUse" color-interpolation-filters="sRGB">
<feFlood flood-opacity="0" result="BackgroundImageFix"/>
<feBlend mode="normal" in="SourceGraphic" in2="BackgroundImageFix" result="shape"/>
<feColorMatrix in="SourceAlpha" type="matrix" values="0 0 0 0 0 0 0 0 0 0 0 0 0 0 0 0 0 0 127 0" result="hardAlpha"/>
<feOffset dx="0.49611" dy="-5.95332"/>
<feGaussianBlur stdDeviation="0.49611"/>
<feComposite in2="hardAlpha" operator="arithmetic" k2="-1" k3="1"/>
<feColorMatrix type="matrix" values="0 0 0 0 0.321569 0 0 0 0 0.376471 0 0 0 0 0.866667 0 0 0 0.6 0"/>
<feBlend mode="normal" in2="shape" result="effect1_innerShadow_1498_28954"/>
</filter>
<filter id="filter2_i_1498_28954" x="79.871" y="165.701" width="40.6797" height="108.152" filterUnits="userSpaceOnUse" color-interpolation-filters="sRGB">
<feFlood flood-opacity="0" result="BackgroundImageFix"/>
<feBlend mode="normal" in="SourceGraphic" in2="BackgroundImageFix" result="shape"/>
<feColorMatrix in="SourceAlpha" type="matrix" values="0 0 0 0 0 0 0 0 0 0 0 0 0 0 0 0 0 0 127 0" result="hardAlpha"/>
<feOffset dx="-5.45721" dy="-8.43386"/>
<feGaussianBlur stdDeviation="0.744164"/>
<feComposite in2="hardAlpha" operator="arithmetic" k2="-1" k3="1"/>
<feColorMatrix type="matrix" values="0 0 0 0 0.141667 0 0 0 0 0.170204 0 0 0 0 0.425 0 0 0 0.34 0"/>
<feBlend mode="darken" in2="shape" result="effect1_innerShadow_1498_28954"/>
</filter>
<filter id="filter3_i_1498_28954" x="43.9453" y="151.459" width="62.5586" height="63.1451" filterUnits="userSpaceOnUse" color-interpolation-filters="sRGB">
<feFlood flood-opacity="0" result="BackgroundImageFix"/>
<feBlend mode="normal" in="SourceGraphic" in2="BackgroundImageFix" result="shape"/>
<feColorMatrix in="SourceAlpha" type="matrix" values="0 0 0 0 0 0 0 0 0 0 0 0 0 0 0 0 0 0 127 0" result="hardAlpha"/>
<feOffset dx="-2.48055" dy="-8.43386"/>
<feGaussianBlur stdDeviation="0.744164"/>
<feComposite in2="hardAlpha" operator="arithmetic" k2="-1" k3="1"/>
<feColorMatrix type="matrix" values="0 0 0 0 0.321569 0 0 0 0 0.376471 0 0 0 0 0.866667 0 0 0 0.6 0"/>
<feBlend mode="normal" in2="shape" result="effect1_innerShadow_1498_28954"/>
</filter>
</defs>
</svg>
